<?xml version="1.0" encoding="UTF-8"?>
<svg xmlns="http://www.w3.org/2000/svg" xmlns:xlink="http://www.w3.org/1999/xlink" width="561pt" height="674.9pt" viewBox="0 0 561 674.9" version="1.1">
<defs>
<clipPath id="clip1">
  <path d="M 0 0 L 561 0 L 561 674.898438 L 0 674.898438 Z M 0 0 "/>
</clipPath>
</defs>
<g id="surface1">
<path style=" stroke:none;fill-rule:evenodd;fill:rgb(100%,0%,0%);fill-opacity:1;" d="M 153.453125 193.472656 C 140.890625 208.359375 131.246094 226.175781 127.894531 250.273438 C 119.789063 232.347656 102.65625 223.449219 105.175781 194.890625 C 117.4375 188.578125 138.746094 190.527344 153.453125 193.472656 Z M 153.453125 193.472656 "/>
<path style=" stroke:none;fill-rule:evenodd;fill:rgb(100%,0%,0%);fill-opacity:1;" d="M 461.605469 200.574219 C 470.535156 205.84375 476.9375 213.644531 485.746094 219.03125 C 485.746094 233.234375 485.746094 247.433594 485.746094 261.632813 C 479.199219 251.140625 475.789063 237.507813 470.121094 226.132813 C 457.691406 232.628906 449.671875 243.546875 437.464844 250.273438 C 445.527344 233.722656 460.441406 224.023438 461.605469 200.574219 Z M 461.605469 200.574219 "/>
<path style=" stroke:none;fill-rule:evenodd;fill:rgb(100%,0%,0%);fill-opacity:1;" d="M 247.179688 304.234375 C 244.734375 324.039063 243.148438 344.699219 242.914063 366.71875 C 237.234375 350.15625 236.5625 328.578125 232.980469 309.914063 C 216.394531 298.570313 190.527344 296.515625 179.019531 280.09375 C 182.351563 280.546875 184.347656 282.339844 188.953125 281.515625 C 193.660156 279.117188 197.976563 276.335938 201.738281 272.996094 C 219.597656 280.695313 232.03125 293.820313 247.179688 304.234375 Z M 247.179688 304.234375 "/>
<g clip-path="url(#clip1)" clip-rule="nonzero">
<path style=" stroke:none;fill-rule:evenodd;fill:rgb(100%,0%,0%);fill-opacity:1;" d="M 457.347656 77.027344 C 454.914063 80.277344 446.507813 77.550781 441.726563 78.449219 C 470.742188 110.019531 506.78125 134.570313 535.449219 166.492188 C 531.058594 169.675781 526.046875 172.234375 522.664063 176.433594 C 529.144531 188.414063 538.550781 197.46875 546.808594 207.671875 C 543.449219 210.941406 534.0625 208.179688 528.347656 209.09375 C 537.394531 232.234375 551.660156 250.15625 561.007813 272.996094 C 556.546875 273.738281 553.085938 275.488281 549.648438 277.253906 C 548.878906 300.152344 551.300781 326.242188 548.230469 346.835938 C 542.882813 341.769531 539.367188 334.871094 535.449219 328.371094 C 517.117188 358.328125 501.902344 391.394531 484.328125 422.097656 C 480.363281 417.539063 476.617188 412.769531 471.546875 409.320313 C 460.984375 435.675781 451.589844 463.203125 441.726563 490.261719 C 434.539063 487.035156 430.613281 480.546875 423.265625 477.480469 C 418.296875 483.371094 416.992188 490.703125 413.324219 498.78125 C 410.664063 504.621094 404.476563 511.515625 403.382813 518.664063 C 401.421875 531.519531 406.234375 549.777344 407.644531 565.523438 C 408.351563 573.4375 409.398438 581.640625 410.484375 589.664063 C 397.039063 597.195313 389.761719 611.390625 377.824219 620.90625 C 359.566406 635.457031 335.84375 643.746094 323.863281 664.925781 C 322.660156 660.835938 324.6875 647.796875 323.863281 639.367188 C 313.269531 650.542969 308.535156 667.582031 291.199219 672.027344 C 291.199219 665.875 291.199219 659.71875 291.199219 653.566406 C 286.152344 658.933594 284.203125 667.398438 281.261719 674.867188 C 276.773438 668.460938 273.445313 660.910156 271.320313 652.148438 C 268.605469 658.816406 269.589844 667.007813 269.902344 673.449219 C 255.410156 666.164063 246.007813 653.789063 238.660156 639.367188 C 235.371094 645.074219 238.164063 656.859375 237.238281 664.925781 C 223.652344 645.855469 203.652344 633.191406 183.277344 620.90625 C 172.070313 603.238281 158.164063 588.269531 146.355469 571.203125 C 143.945313 540.007813 144.59375 505.746094 139.257813 477.480469 C 131.300781 479.9375 126.390625 485.441406 120.796875 490.261719 C 108.011719 465.179688 99.976563 435.34375 89.554688 407.898438 C 85.296875 412.636719 80.757813 417.085938 76.773438 422.097656 C 59.773438 391.289063 42.738281 360.519531 27.074219 328.371094 C 21.164063 333.828125 17.371094 341.394531 12.871094 348.257813 C 8.984375 327.527344 13.773438 298.128906 10.03125 277.253906 C 7.324219 275.230469 3.867188 273.953125 0.09375 272.996094 C 9.371094 250.5625 22.480469 231.953125 32.753906 210.511719 C 27.664063 210.632813 24.542969 212.722656 19.972656 213.351563 C 25.476563 200.871094 32.613281 190.019531 38.433594 177.851563 C 35.644531 174.699219 29.015625 179.714844 22.8125 177.851563 C 54.203125 144.394531 87.972656 113.3125 119.371094 79.867188 C 118.320313 76.664063 111.410156 79.3125 108.015625 78.449219 C 125.210938 64.878906 142.605469 51.503906 161.976563 40.109375 C 160.640625 36.238281 154.8125 36.855469 150.617188 35.847656 C 175.738281 25.03125 200.488281 5.945313 235.820313 17.386719 C 239.453125 11.789063 223.378906 6.230469 225.878906 1.765625 C 235.070313 3.554688 244.261719 4.996094 254.28125 7.445313 C 276.421875 12.851563 285.71875 18.257813 299.722656 0.347656 C 314.363281 -0.0976563 325.824219 2.644531 339.484375 3.1875 C 334.644531 7.816406 328.878906 11.515625 323.863281 15.964844 C 335.296875 18.230469 347.59375 11.984375 357.941406 13.121094 C 377.175781 15.246094 392.105469 32.277344 410.484375 34.425781 C 408.429688 37.578125 402.03125 36.390625 399.121094 38.6875 C 414.101563 48.59375 437.8125 59.953125 445.984375 69.929688 C 449.9375 74.753906 452.078125 76.195313 457.347656 77.027344 Z M 51.214844 312.753906 C 60.578125 333.6875 65.289063 359.269531 75.355469 379.496094 C 80.445313 354.769531 84.40625 328.910156 89.554688 304.234375 C 112.578125 291.757813 135.828125 279.507813 159.136719 267.316406 C 170.136719 245.652344 174.316406 217.171875 173.335938 183.53125 C 156.246094 179.589844 138.847656 161.363281 122.214844 159.390625 C 106.714844 157.554688 90.667969 165.851563 71.09375 165.070313 C 64.792969 173.929688 52.117188 183.945313 51.214844 193.472656 C 65.871094 188.253906 83.117188 185.617188 99.496094 182.113281 C 83.269531 197.597656 66.457031 212.496094 48.371094 226.132813 C 42.859375 254.703125 28.035156 281.527344 25.652344 308.496094 C 48.671875 281.449219 75.121094 250.714844 98.074219 228.972656 C 81.0625 255.507813 67.304688 285.300781 51.214844 312.753906 Z M 302.5625 28.746094 C 294.945313 29.4375 287.371094 33.121094 279.839844 33.007813 C 262.769531 32.746094 245.664063 24.976563 224.460938 28.746094 C 224.121094 26.566406 222.121094 28.539063 221.621094 30.164063 C 238.820313 34.265625 254.054688 40.328125 269.902344 45.789063 C 263.382813 79.746094 269.195313 111.226563 272.742188 143.769531 C 273.84375 153.882813 274.453125 163.558594 275.578125 173.589844 C 276.617188 182.84375 276.886719 193.6875 281.261719 201.992188 C 283.964844 169.179688 291.273438 131.773438 295.460938 101.164063 C 296.988281 89.992188 300.492188 76.101563 299.722656 67.089844 C 298.871094 57.144531 290.132813 49.894531 291.199219 40.109375 C 299.394531 39.8125 307.121094 36.371094 315.339844 34.425781 C 323.039063 32.605469 332.914063 33.160156 338.0625 27.328125 C 325.46875 30.425781 314.246094 27.6875 302.5625 28.746094 Z M 181.859375 48.628906 C 172.996094 54.914063 162.316406 59.378906 153.453125 65.664063 C 168.972656 70.507813 182.71875 77.117188 198.898438 81.289063 C 221.035156 106.960938 240.328125 135.476563 259.960938 163.652344 C 249.691406 131.316406 238.984375 99.425781 228.71875 67.089844 C 213.011719 61.019531 199.101563 53.160156 181.859375 48.628906 Z M 379.242188 48.628906 C 361.855469 53.011719 347.96875 60.902344 332.382813 67.089844 C 327.246094 82.949219 322.152344 99.308594 316.761719 115.371094 C 311.257813 131.765625 303.773438 147.671875 302.5625 163.652344 C 320.160156 133.441406 340.199219 105.671875 363.621094 81.289063 C 378.046875 76.777344 390.746094 70.546875 406.226563 67.089844 C 400.164063 58.003906 387.15625 55.859375 379.242188 48.628906 Z M 166.238281 99.746094 C 152.484375 97.410156 140.679688 93.117188 126.476563 91.230469 C 118.949219 101.453125 107.628906 112.285156 99.496094 121.050781 C 98.570313 122.046875 89.785156 126.050781 95.234375 128.148438 C 113.371094 125.9375 132.121094 124.328125 149.195313 121.050781 C 158.367188 127.972656 170.503906 131.929688 179.019531 139.511719 C 183.878906 149.324219 183.953125 163.925781 190.378906 172.171875 C 191.308594 157.480469 192.113281 142.664063 194.636719 129.570313 C 183.789063 121.011719 175.597656 109.789063 166.238281 99.746094 Z M 433.203125 91.230469 C 424.097656 95.34375 405.554688 94.851563 397.703125 98.328125 C 391.433594 101.109375 386.9375 110.027344 382.078125 115.371094 C 376.066406 121.996094 367.839844 125.984375 366.464844 132.410156 C 364.175781 143.097656 371.261719 158.398438 372.144531 172.171875 C 374.773438 161.074219 378.863281 151.4375 380.664063 139.511719 C 390.578125 132.859375 401.804688 127.519531 411.90625 121.050781 C 429.511719 124.269531 448.347656 126.261719 467.285156 128.148438 C 461.007813 116.433594 443.03125 104.128906 433.203125 91.230469 Z M 491.425781 165.070313 C 470.570313 166.472656 453.710938 157.046875 437.464844 159.390625 C 437.097656 159.445313 436.371094 159.226563 436.046875 159.390625 C 419.574219 167.671875 402.566406 177.195313 386.34375 183.53125 C 387.570313 214.964844 390.683594 244.515625 400.539063 267.316406 C 424.539063 279.765625 449.691406 291.0625 471.546875 305.65625 C 474.039063 317.386719 476.320313 329.703125 478.648438 342.578125 C 480.90625 355.078125 481.703125 369.183594 487.164063 379.496094 C 489.445313 368.78125 494.808594 358.238281 498.527344 346.835938 C 502.128906 335.789063 509.136719 321.648438 508.46875 312.753906 C 507.996094 306.496094 501.472656 298.367188 498.527344 292.871094 C 494.964844 286.238281 490.503906 281.078125 490.007813 274.414063 C 502.570313 281.261719 513.808594 289.429688 526.929688 295.714844 C 522.816406 272.371094 516.621094 251.109375 512.726563 227.554688 C 496.300781 212.410156 474.140625 195.800781 461.605469 182.113281 C 478.144531 184.980469 492.710938 189.824219 509.886719 192.050781 C 508.347656 184.109375 495.328125 175.378906 491.425781 165.070313 Z M 342.324219 439.140625 C 351.679688 410.628906 357.429688 378.511719 363.621094 346.835938 C 371.066406 336.121094 397.753906 326.796875 400.539063 314.175781 C 401.371094 310.445313 398.53125 299.328125 397.703125 292.871094 C 394.9375 271.28125 390.011719 264.527344 383.503906 248.855469 C 373.546875 224.878906 361.300781 193.691406 353.683594 173.589844 C 334.476563 176.15625 315.46875 178.925781 295.460938 180.691406 C 289.679688 208.992188 286.570313 239.964844 279.839844 267.316406 C 275.519531 238.027344 270.300781 209.640625 265.640625 180.691406 C 245.628906 178.925781 226.621094 176.15625 207.414063 173.589844 C 194.703125 207.742188 179.6875 239.578125 166.238281 272.996094 C 148.367188 281.160156 133.351563 292.175781 115.117188 299.976563 C 120.445313 324.46875 129.746094 344.988281 134.996094 369.558594 C 150.789063 384.527344 169.632813 396.453125 184.699219 412.160156 C 186.46875 435.300781 188.789063 461.289063 190.378906 483.160156 C 192.394531 510.90625 198.289063 553.6875 196.058594 568.363281 C 195.160156 574.269531 187.988281 580.269531 190.378906 586.824219 C 194.925781 580.011719 203.558594 577.285156 207.414063 569.785156 C 206.359375 541.015625 202.703125 507.289063 205.996094 478.902344 C 211.078125 513.109375 220.152344 543.320313 225.878906 576.882813 C 232.085938 581.09375 236.527344 587.0625 244.339844 589.664063 C 242.710938 572.355469 238.320313 550.253906 240.078125 534.28125 C 248.273438 555.914063 258.195313 575.8125 268.480469 595.34375 C 273.410156 581.8125 274.953125 564.898438 281.261719 552.742188 C 283.855469 567.664063 289.371094 579.660156 291.199219 595.34375 C 295.78125 592.195313 297.414063 585.785156 299.722656 581.144531 C 307.835938 564.785156 314.15625 548.765625 322.441406 534.28125 C 320.929688 550.765625 317.171875 572.550781 318.179688 586.824219 C 332.574219 532.109375 346.546875 476.972656 362.203125 423.519531 C 363.148438 472.746094 360.308594 525.761719 363.621094 572.621094 C 369.148438 519.453125 371.390625 463.003906 376.402344 409.320313 C 393.929688 397.972656 408.46875 383.632813 424.683594 370.976563 C 427.109375 352.574219 429.09375 333.730469 431.785156 315.597656 C 422.585938 322.203125 421.09375 333.664063 413.324219 341.15625 C 401.128906 352.914063 382.242188 356.878906 369.304688 368.136719 C 360.539063 400.078125 346.539063 426.789063 338.0625 459.019531 C 336.117188 461.808594 329.496094 459.925781 329.539063 464.699219 C 333.371094 482.140625 321.898438 495.609375 318.179688 510.140625 C 314.882813 509.519531 314.378906 503.871094 311.078125 507.300781 C 307.21875 515.746094 301.6875 522.523438 295.460938 528.601563 C 292.113281 528.164063 292.820313 523.671875 288.359375 524.34375 C 286.566406 530.59375 282.953125 535.027344 279.839844 539.964844 C 278.269531 533.960938 273.703125 530.949219 272.742188 524.34375 C 268.503906 524.363281 267.914063 528.035156 264.21875 528.601563 C 258.460938 521.109375 252.976563 513.339844 247.179688 505.882813 C 245.898438 508.355469 244.003906 511.351563 241.496094 508.722656 C 238.339844 493.136719 226.738281 480.996094 231.558594 461.859375 C 220.0625 461.996094 219.738281 450.960938 215.9375 443.398438 C 222.984375 457.179688 245.929688 455.0625 259.960938 461.859375 C 263.886719 458.6875 268.632813 456.335938 274.160156 454.761719 C 274.519531 446.355469 271.988281 440.835938 271.320313 433.460938 C 262.8125 429.1875 254.746094 424.46875 247.179688 419.257813 C 245.15625 411.816406 245.121094 402.386719 242.914063 395.117188 C 246.648438 397.539063 247.300781 403.046875 250.019531 406.480469 C 271.222656 409.289063 289.730469 409.097656 311.078125 406.480469 C 312.445313 372.816406 313.546875 338.890625 313.921875 304.234375 C 328.203125 291.539063 341.964844 278.320313 357.941406 267.316406 C 365.28125 271.882813 368.371094 286.414063 382.078125 280.09375 C 369.054688 294.046875 349.683594 301.65625 332.382813 311.335938 C 327.855469 346.574219 321.972656 380.449219 318.179688 416.414063 C 304.117188 425.546875 285.359375 429.988281 285.519531 453.339844 C 305.253906 469.914063 324.347656 445.484375 342.324219 439.140625 Z M 99.496094 389.4375 C 100.910156 401.414063 107.339844 413.539063 110.855469 424.941406 C 114.773438 437.644531 118.355469 449.769531 120.796875 461.859375 C 129.984375 453.535156 129.621094 435.660156 139.257813 427.78125 C 153.480469 468.464844 168.605469 508.246094 184.699219 547.0625 C 180.242188 504.65625 173.066406 464.972656 169.078125 422.097656 C 158.355469 413.890625 143.453125 409.855469 133.574219 400.796875 C 125.453125 371.996094 119.019531 341.511719 110.855469 312.753906 C 104.859375 329.070313 96.847656 367.027344 99.496094 389.4375 Z M 433.203125 410.738281 C 418.160156 412.734375 406.425781 418.039063 392.023438 420.679688 C 392.1875 444.988281 386.414063 470.914063 387.765625 491.679688 C 403.085938 465.351563 416.601563 437.203125 433.203125 412.160156 C 433.191406 429.6875 437.621094 442.773438 437.464844 460.441406 C 442.765625 456.859375 442.734375 449.4375 444.566406 443.398438 C 450.164063 424.921875 460.304688 403.933594 461.605469 385.179688 C 463.335938 360.226563 456.507813 335.175781 450.246094 312.753906 C 443.488281 344.339844 437.789063 376.988281 433.203125 410.738281 Z M 279.839844 457.601563 C 273.148438 463.214844 266.203125 468.574219 257.121094 471.800781 C 250.6875 469.242188 243.996094 466.9375 237.238281 464.699219 C 246.210938 483.183594 260.03125 496.816406 281.261719 503.039063 C 301.011719 495.8125 315.179688 482.996094 323.863281 464.699219 C 315.847656 466.628906 309.894531 470.617188 301.140625 471.800781 C 294.03125 467.074219 286.949219 462.324219 279.839844 457.601563 Z M 279.839844 457.601563 "/>
</g>
<path style=" stroke:none;fill-rule:evenodd;fill:rgb(100%,0%,0%);fill-opacity:1;" d="M 406.226563 193.472656 C 416.679688 191.363281 443.785156 188.027344 455.925781 194.890625 C 458.878906 223.402344 440.039063 230.128906 434.621094 250.273438 C 427.441406 240.65625 429.261719 227.902344 424.683594 217.613281 C 420.289063 207.726563 411.171875 201.734375 406.226563 193.472656 Z M 406.226563 193.472656 "/>
<path style=" stroke:none;fill-rule:evenodd;fill:rgb(100%,0%,0%);fill-opacity:1;" d="M 161.976563 287.195313 C 162.269531 294.136719 156.128906 306.890625 153.453125 315.597656 C 166.21875 326.972656 177.996094 339.335938 191.796875 349.675781 C 195.425781 367.824219 200.320313 384.699219 204.578125 402.21875 C 198.757813 391.949219 195.4375 379.171875 190.378906 368.136719 C 176.316406 358.53125 161.882813 349.296875 146.355469 341.15625 C 144.710938 332.386719 140.855469 325.828125 137.835938 318.4375 C 143.804688 305.945313 154.613281 298.289063 161.976563 287.195313 Z M 161.976563 287.195313 "/>
</g>
</svg>
